<svg width="68" height="51" viewBox="0 0 68 51" fill="none" xmlns="http://www.w3.org/2000/svg">
<path d="M67.9005 23.953C66.8958 13.8802 58.3719 5.98826 48.0391 5.98826H46.0431V0H32.0704V11.9765H5.98826V23.953H0V44.5793H8.23692C9.12557 48.019 12.255 50.5675 15.9687 50.5675C19.6822 50.5675 22.8118 48.019 23.7005 44.5793H46.2958C47.1844 48.019 50.3139 50.5675 54.0275 50.5675C57.7411 50.5675 60.8706 48.019 61.7593 44.5793H68C68 42.234 68 25.834 68 23.953H67.9005ZM48.0391 9.98043C56.1683 9.98043 62.8981 16.0867 63.8837 23.953H46.0431V9.98043H48.0391ZM36.0626 3.99217H42.0509V23.953H36.0626C36.0626 23.0315 36.0626 4.91037 36.0626 3.99217ZM9.98043 15.9687H32.0704V23.953H9.98043V15.9687ZM15.9687 46.5753C13.7674 46.5753 11.9765 44.7845 11.9765 42.5832C11.9765 40.3819 13.7674 38.591 15.9687 38.591C18.17 38.591 19.9609 40.3819 19.9609 42.5832C19.9609 44.7845 18.17 46.5753 15.9687 46.5753ZM23.7005 40.5871C22.8118 37.1473 19.6823 34.5988 15.9687 34.5988C12.2552 34.5988 9.12557 37.1473 8.23692 40.5871H3.99217V27.9452H42.0509V40.5871H23.7005ZM54.0274 46.5753C51.8261 46.5753 50.0352 44.7845 50.0352 42.5832C50.0352 40.3819 51.8261 38.591 54.0274 38.591C56.2287 38.591 58.0196 40.3819 58.0196 42.5832C58.0196 44.7845 56.2287 46.5753 54.0274 46.5753ZM64.0078 40.5871H61.7592C60.8705 37.1473 57.741 34.5988 54.0274 34.5988C50.3139 34.5988 47.1843 37.1473 46.2956 40.5871H46.0431V27.9452H64.0078V40.5871Z" fill="#245462"/>
</svg>
