<svg width="20" height="20" viewBox="0 0 20 20" fill="none" xmlns="http://www.w3.org/2000/svg">
<path d="M10.3906 20H9.60938C8.31703 20 7.26562 18.9486 7.26562 17.6562V17.2628C7.26562 17.1593 7.20043 17.0654 7.09953 17.0238L7.08516 17.0179C6.98391 16.9758 6.87109 16.9959 6.79789 17.0691L6.51973 17.3473C6.07707 17.79 5.48852 18.0338 4.86242 18.0338C4.23641 18.0338 3.64781 17.79 3.20512 17.3473L2.6527 16.7948C2.21004 16.3522 1.96625 15.7637 1.96625 15.1376C1.96625 14.5116 2.21004 13.923 2.6527 13.4803L2.93094 13.2021C3.0041 13.1289 3.02422 13.0161 2.98215 12.9148L2.97625 12.9005C2.93461 12.7996 2.84074 12.7344 2.73727 12.7344H2.34375C1.05141 12.7344 0 11.683 0 10.3906V9.60938C0 8.31703 1.05141 7.26562 2.34375 7.26562H2.73723C2.8407 7.26562 2.93457 7.20043 2.97621 7.09953L2.98211 7.08523C3.02418 6.98391 3.0041 6.87113 2.93086 6.79797L2.65266 6.51973C2.21 6.07707 1.96621 5.48852 1.96621 4.86246C1.96621 4.23641 2.21 3.64781 2.6527 3.20516L3.20512 2.65273C3.64781 2.21004 4.23637 1.96625 4.86242 1.96625C5.48848 1.96625 6.07707 2.21004 6.51973 2.65273L6.79793 2.9309C6.87105 3.00406 6.98379 3.02418 7.0852 2.98215L7.09957 2.97625C7.20047 2.93461 7.26566 2.84074 7.26566 2.73727V2.34375C7.26566 1.05141 8.31707 0 9.60941 0H10.3907C11.683 0 12.7344 1.05141 12.7344 2.34375V2.73723C12.7344 2.8407 12.7996 2.93457 12.9005 2.97621L12.9149 2.98211C13.0161 3.02418 13.1289 3.0041 13.2021 2.93086L13.4803 2.65266C13.923 2.21 14.5115 1.96621 15.1376 1.96621C15.7636 1.96621 16.3522 2.21 16.7949 2.65266L17.3473 3.20516C17.79 3.64777 18.0338 4.23633 18.0338 4.86242C18.0338 5.48844 17.79 6.07703 17.3473 6.51969L17.0691 6.79793C16.9959 6.87109 16.9758 6.98391 17.0179 7.0852L17.0238 7.09949C17.0654 7.20039 17.1593 7.26559 17.2628 7.26559H17.6562C18.9486 7.26559 20 8.31699 20 9.60934V10.3906C20 11.4606 19.2769 12.394 18.2416 12.6605C17.8236 12.768 17.3978 12.5164 17.2903 12.0986C17.1827 11.6807 17.4343 11.2548 17.8521 11.1473C18.1968 11.0586 18.4375 10.7475 18.4375 10.3906V9.60938C18.4375 9.17859 18.087 8.82812 17.6562 8.82812H17.2628C16.5244 8.82812 15.8637 8.38375 15.5796 7.69602L15.5737 7.68176C15.2893 6.99695 15.4421 6.21523 15.9642 5.69309L16.2424 5.41488C16.39 5.26734 16.4713 5.07113 16.4713 4.86246C16.4713 4.65375 16.39 4.45762 16.2425 4.31004L15.69 3.75754C15.5425 3.61 15.3463 3.52875 15.1376 3.52875C14.9289 3.52875 14.7327 3.61 14.5852 3.75754L14.307 4.03578C13.7846 4.55793 13.003 4.71062 12.3154 4.42508L12.304 4.42039C11.6163 4.13637 11.1719 3.47566 11.1719 2.73723V2.34375C11.1719 1.91297 10.8214 1.5625 10.3906 1.5625H9.60938C9.17859 1.5625 8.82812 1.91297 8.82812 2.34375V2.73723C8.82812 3.47563 8.38375 4.13633 7.69602 4.42039L7.68461 4.42508C6.99691 4.71074 6.21531 4.55793 5.69309 4.03578L5.41484 3.75758C5.2673 3.61 5.07113 3.52875 4.86242 3.52875C4.65375 3.52875 4.45758 3.61 4.30996 3.75758L3.75758 4.31C3.61 4.45758 3.52875 4.65375 3.52875 4.86246C3.52875 5.07113 3.61 5.2673 3.75758 5.41488L4.03578 5.69309C4.55789 6.21523 4.7107 6.99695 4.42508 7.68461L4.42039 7.69602C4.13637 8.38375 3.47566 8.82812 2.73723 8.82812H2.34375C1.91297 8.82812 1.5625 9.17859 1.5625 9.60938V10.3906C1.5625 10.8214 1.91297 11.1719 2.34375 11.1719H2.73723C3.47563 11.1719 4.13633 11.6163 4.42039 12.304L4.42508 12.3154C4.71074 13.003 4.55789 13.7847 4.03578 14.3069L3.75754 14.5852C3.61 14.7327 3.52875 14.9289 3.52875 15.1375C3.52875 15.3462 3.61 15.5424 3.75754 15.69L4.31 16.2425C4.45754 16.39 4.65375 16.4713 4.86242 16.4713C5.07113 16.4713 5.26727 16.39 5.41484 16.2425L5.69305 15.9642C6.21535 15.442 6.99699 15.2894 7.68461 15.5749L7.69602 15.5796C8.38375 15.8636 8.82812 16.5243 8.82812 17.2628V17.6562C8.82812 18.087 9.17859 18.4375 9.60938 18.4375H10.3906C10.7339 18.4375 11.0336 18.2178 11.1363 17.8909C11.2656 17.4792 11.7041 17.2505 12.1157 17.3796C12.5273 17.509 12.7562 17.9475 12.627 18.3591C12.3186 19.3406 11.42 20 10.3906 20ZM19.3305 19.2915C19.7622 18.8598 20 18.2858 20 17.6753C20 17.0648 19.7622 16.4908 19.3305 16.0591C19.3301 16.0587 19.3297 16.0583 19.3294 16.0579L14.2635 11.0132C14.4975 10.5037 14.6476 9.91422 14.6484 9.44C14.6501 8.42898 14.2601 7.50371 13.5206 6.76422C12.6152 5.85879 11.2388 5.31891 9.83699 5.31891C9.8341 5.31891 9.83102 5.31891 9.82805 5.31891C9.37453 5.31969 8.9432 5.39441 8.47062 5.5541C8.21602 5.64012 8.02352 5.85098 7.96094 6.1123C7.89836 6.37367 7.97453 6.64883 8.16254 6.84086L10.0446 8.76262L9.80934 9.77641L8.81262 10.0025L6.90164 8.08738C6.71082 7.89617 6.43484 7.81703 6.17168 7.87824C5.90859 7.93937 5.69574 8.13215 5.60887 8.38793C5.4407 8.88301 5.35863 9.34133 5.35789 9.78914C5.35602 10.953 5.72125 12.1174 6.35996 12.984C7.13273 14.0324 8.23777 14.6094 9.4725 14.6094C9.47465 14.6094 9.47691 14.6094 9.47902 14.6094C9.90996 14.6086 10.5134 14.4872 11.0516 14.2531L16.0981 19.2915C16.5298 19.7232 17.1038 19.9609 17.7143 19.9609C18.3248 19.9609 18.8989 19.7232 19.3305 19.2915ZM10.7354 12.6525C10.4119 12.8842 9.81227 13.0463 9.47645 13.0469C8.54344 13.0473 7.95129 12.5093 7.61773 12.0569C7.27391 11.5904 7.04398 10.9909 6.95805 10.356L8.01145 11.4116C8.20117 11.6018 8.47547 11.6811 8.73727 11.6217L10.6324 11.1918C10.9245 11.1256 11.1529 10.8982 11.2207 10.6066L11.6636 8.69863C11.7239 8.43871 11.6474 8.16598 11.4607 7.97531L10.4323 6.9252C11.2073 7.03996 11.9216 7.37484 12.4157 7.86898C12.8614 8.31465 13.0869 8.84234 13.0859 9.43734C13.0854 9.74996 12.9024 10.3518 12.6582 10.6892C12.4328 11.0006 12.4674 11.4296 12.7398 11.7008L18.2259 17.1641C18.3623 17.3006 18.4375 17.4821 18.4375 17.6752C18.4375 17.8684 18.3623 18.05 18.2257 18.1865C18.0891 18.3231 17.9075 18.3984 17.7143 18.3984C17.5212 18.3984 17.3396 18.3231 17.2025 18.1861L11.7423 12.7348C11.5911 12.5838 11.3913 12.5064 11.1901 12.5064C11.0316 12.5064 10.8723 12.5545 10.7354 12.6525Z" fill="black"/>
</svg>
