<svg width="18" height="20" viewBox="0 0 18 20" fill="none" xmlns="http://www.w3.org/2000/svg">
<path d="M11.803 12.196L14.941 10.3844C15.2212 10.2226 15.3173 9.8643 15.1555 9.58402C14.9937 9.30379 14.6353 9.20766 14.3551 9.36957L11.2171 11.1812C10.9368 11.343 10.8408 11.7013 11.0026 11.9816C11.1387 12.2174 11.4807 12.3822 11.803 12.196Z" fill="black"/>
<path d="M17.4454 4.78555L9.29254 0.0785156C9.11121 -0.0261719 8.88789 -0.0261719 8.7066 0.0785156L0.553711 4.78555C0.372422 4.89023 0.260742 5.08363 0.260742 5.29297V14.707C0.260742 14.9164 0.372422 15.1098 0.553711 15.2145L8.7066 19.9215C8.79723 19.9738 8.8984 20 8.99957 20C9.10074 20 9.20191 19.9738 9.29254 19.9215L17.4454 15.2145C17.6267 15.1098 17.7384 14.9164 17.7384 14.707V5.29297C17.7384 5.08363 17.6267 4.8902 17.4454 4.78555ZM13.2659 3.72555L6.28484 7.75602L4.73918 6.86355L11.7202 2.83309L13.2659 3.72555ZM5.69891 8.77086V10.5506L4.15105 9.65688L4.1525 7.87801L5.69891 8.77086ZM8.99957 1.2625L10.5482 2.1566L3.56719 6.18707L2.01855 5.29297L8.99957 1.2625ZM8.41363 18.3992L1.43262 14.3687V6.30781L2.98117 7.20184L2.97895 9.99449C2.97879 10.2039 3.09047 10.3976 3.27191 10.5024L5.99191 12.073C6.29703 12.2491 6.57219 12.0763 6.57785 12.073C6.75918 11.9683 6.87082 11.7749 6.87082 11.5655V9.44754L8.41363 10.3383V18.3992ZM8.99957 9.32344L7.45664 8.43266L14.4377 4.40219L15.9805 5.29297L8.99957 9.32344ZM16.5665 14.3687L9.58551 18.3992V10.3383L16.5665 6.30781V14.3687Z" fill="black"/>
<path d="M14.3551 12.5075L11.2171 14.3191C10.9369 14.4809 10.8408 14.8393 11.0026 15.1195C11.1403 15.3579 11.4829 15.5189 11.803 15.334L14.941 13.5225C15.2213 13.3606 15.3173 13.0023 15.1555 12.7221C14.9937 12.4418 14.6354 12.3458 14.3551 12.5075Z" fill="black"/>
</svg>
