<svg width="20" height="20" viewBox="0 0 20 20" fill="none" xmlns="http://www.w3.org/2000/svg">
<path d="M20 6.39011C20.0006 6.23312 19.9382 6.0825 19.8268 5.97191L14.8159 1.00007C14.5868 0.772809 14.217 0.773473 13.9888 1.00171L12.5327 2.45789C11.682 2.3773 10.8141 2.46687 10.0003 2.71949C9.18524 2.46656 8.31907 2.37707 7.46731 2.45789L6.01118 1.00175C5.78297 0.773551 5.41325 0.772809 5.18414 1.00011L0.173246 5.97191C0.061801 6.0825 -0.000581847 6.23316 4.0906e-06 6.39011C0.000590028 6.54707 0.0642228 6.69726 0.176488 6.80695L1.66645 8.26261C1.58418 9.1373 1.68129 10.0305 1.9511 10.8639C2.12157 11.3904 2.35508 11.8843 2.64821 12.3423L2.38789 12.6027C1.70254 13.288 1.70254 14.4032 2.38789 15.0886C2.54965 15.2503 2.73555 15.3734 2.93391 15.4588C2.5502 16.1301 2.64414 17.0021 3.21657 17.5745C3.79231 18.1502 4.66309 18.2414 5.33157 17.858C5.41848 18.0589 5.54309 18.2437 5.7025 18.4031C6.38836 19.089 7.50356 19.088 8.1884 18.4031L8.34278 18.2487L8.70055 18.6065C8.72024 18.6262 8.74102 18.6443 8.76266 18.6605C9.09399 18.9891 9.53313 19.1699 10.0001 19.1699C10.4679 19.1699 10.9079 18.9884 11.2395 18.6586C11.5671 18.3412 11.451 18.4552 11.6574 18.2488C11.8608 18.4522 12.27 18.918 13.0547 18.918C13.5243 18.918 13.9657 18.7352 14.2977 18.4032C14.4572 18.2436 14.5819 18.0587 14.6688 17.8577C15.3425 18.2422 16.2129 18.1452 16.7836 17.5745C17.356 17.0021 17.45 16.13 17.0663 15.4588C17.2646 15.3734 17.4505 15.2503 17.6122 15.0886C18.2993 14.4016 18.2993 13.2897 17.6122 12.6027L17.3508 12.3412C18.1168 11.1384 18.4676 9.69035 18.3336 8.26261L19.8237 6.80691C19.9358 6.69726 19.9994 6.54711 20 6.39011ZM3.21653 14.26C2.98805 14.0315 2.98805 13.6598 3.21649 13.4313L3.3736 13.2742C3.42325 13.3272 3.4736 13.3796 3.52524 13.4313L4.19954 14.1056L4.04516 14.26C3.81668 14.4884 3.445 14.4884 3.21653 14.26ZM4.87379 16.7459C4.64477 16.9749 4.27418 16.9749 4.04516 16.7459C3.81614 16.5168 3.81614 16.1463 4.04516 15.9172L5.02817 14.9342L5.85684 15.7628L4.87379 16.7459ZM7.35969 17.5745C7.13118 17.803 6.7595 17.803 6.53106 17.5745C6.42039 17.4639 6.35942 17.3167 6.35942 17.1602C6.35942 17.0037 6.42039 16.8566 6.53106 16.7459C6.5311 16.7459 6.5311 16.7459 6.53114 16.7458L6.68543 16.5915L7.51407 17.4202L7.35969 17.5745ZM16.7835 14.26C16.555 14.4885 16.1833 14.4885 15.9548 14.26C15.9548 14.26 15.9548 14.26 15.9548 14.26L11.8116 10.1168C11.5829 9.88793 11.2118 9.88793 10.983 10.1168C10.7542 10.3456 10.7542 10.7166 10.983 10.9454L15.9548 15.9172C16.1833 16.1457 16.1833 16.5174 15.9548 16.7459C15.7264 16.9744 15.3547 16.9743 15.1262 16.7459C14.8522 16.4719 10.4469 12.0666 10.1543 11.774C9.92555 11.5452 9.55453 11.5452 9.32571 11.774C9.09688 12.0028 9.09688 12.3738 9.32571 12.6027L13.4693 16.7462C13.6979 16.9752 13.6979 17.3455 13.4689 17.5745C13.2399 17.8035 12.8693 17.8035 12.6402 17.5745L8.49707 13.4313C8.26828 13.2025 7.89727 13.2025 7.66844 13.4313C7.43961 13.6602 7.43961 14.0311 7.66844 14.26L10.8286 17.4202C10.6384 17.6104 10.7242 17.5261 10.4209 17.82C10.4186 17.8221 10.4165 17.8243 10.4143 17.8264C10.3036 17.9371 10.1564 17.9981 10 17.9981C9.84348 17.9981 9.69637 17.9371 9.58575 17.8265C9.58356 17.8243 9.58137 17.8221 9.57914 17.82C9.23059 17.4823 4.72766 12.9764 4.35387 12.6027C3.16985 11.4187 2.62614 9.7875 2.86207 8.12734C2.88836 7.94254 2.82496 7.75625 2.69145 7.62578L1.4211 6.38464L5.5952 2.24304L6.8395 3.48734C6.96977 3.61765 7.15383 3.6791 7.33625 3.65312C7.62407 3.61222 7.91504 3.59593 8.20528 3.60277C7.90653 3.81402 7.62414 4.05183 7.35973 4.31629C6.63653 5.03953 4.67977 6.99625 4.04516 7.63086C3.35817 8.31789 3.35805 9.42972 4.04516 10.1168C4.38782 10.4595 4.83797 10.6308 5.28809 10.6308C5.73825 10.6308 6.1884 10.4595 6.53106 10.1168L8.8818 7.76609C9.6484 8.03922 10.4677 8.07218 11.2361 7.88398L16.7835 13.4314C17.0125 13.6604 17.0125 14.031 16.7835 14.26ZM17.3086 7.62574C17.175 7.75621 17.1116 7.94246 17.1379 8.1273C17.3029 9.28777 17.0707 10.4796 16.4974 11.4879L12.4058 7.39636C12.6759 7.23078 12.9296 7.03273 13.1602 6.80218C13.389 6.57336 13.389 6.20238 13.1602 5.97355C12.9314 5.74472 12.5604 5.74472 12.3316 5.97355C11.4549 6.85019 10.1148 7.08043 8.99672 6.54636C8.77278 6.43937 8.50543 6.48515 8.32985 6.66078L5.70246 9.28816C5.47403 9.51664 5.10239 9.51668 4.87379 9.28816C4.76313 9.1775 4.70215 9.03035 4.70215 8.87382C4.70215 8.71734 4.76313 8.57019 4.87379 8.45953C5.55914 7.77418 7.51028 5.82304 8.18836 5.14496C8.1884 5.14492 8.18844 5.14484 8.18852 5.1448C9.36485 3.96859 10.9943 3.41589 12.6638 3.65312C12.8461 3.67906 13.0303 3.61765 13.1605 3.48734L14.4048 2.24304L18.5789 6.38464L17.3086 7.62574Z" fill="black"/>
</svg>
