<svg width="14" height="14" viewBox="0 0 14 14" xmlns="http://www.w3.org/2000/svg">
<path d="M7 0V7.875H0V14H14V0H7ZM7 13.125H0.875V8.75H7V13.125ZM13.125 13.125H7.875V4.375H13.125V13.125ZM13.125 3.5H7.875V0.875H13.125V3.5Z"/>
<path d="M6.125 2.88137L5.25 2.00637V0H4.375V2.36862L5.25 3.24362V3.5H1.75V3.24362L2.625 2.36862V0H1.75V2.00637L0.875 2.88137V4.375H6.125V2.88137Z"/>
<path d="M5.25 9.625H2.625V10.5H5.25V9.625Z"/>
<path d="M9.625 1.75H8.75V2.625H9.625V1.75Z"/>
<path d="M9.625 6.125H8.75V8.75H9.625V6.125Z"/>
<path d="M1.75 5.25H0.875V6.125H1.75V5.25Z"/>
<path d="M3.9375 5.25H3.0625V6.125H3.9375V5.25Z"/>
<path d="M6.125 5.25H5.25V6.125H6.125V5.25Z"/>
</svg>
