<svg width="68" height="68" viewBox="0 0 68 68" fill="none" xmlns="http://www.w3.org/2000/svg">
<path d="M40.5622 16.6875L45.2215 20.1345C45.746 20.5224 45.4809 21.3809 44.8177 21.3851L43.3556 21.394C43.3541 21.394 43.3528 21.394 43.3514 21.394C42.9752 21.394 42.6682 21.0896 42.6658 20.7134C42.659 19.6132 41.7622 18.7246 40.6615 18.7336C39.5613 18.7404 38.6749 19.6378 38.6815 20.738C38.6947 22.8637 40.1341 24.6518 42.0846 25.2025V25.2989C42.0846 26.3991 42.9766 27.2911 44.0766 27.2911C45.1767 27.2911 46.0687 26.3991 46.0687 25.2989V25.1984C46.8449 24.9832 47.5554 24.5694 48.1366 23.9807C49.0134 23.0928 49.4918 21.9166 49.4832 20.6656V20.6531C49.4732 19.1919 48.7659 17.8006 47.591 16.9315L42.9318 13.4846C42.4027 13.093 42.6806 12.2494 43.3398 12.2494H44.8042C45.1823 12.2494 45.4899 12.5566 45.4899 12.9342C45.4899 14.0344 46.3819 14.9264 47.482 14.9264C48.582 14.9264 49.474 14.0344 49.474 12.9342C49.474 10.7979 48.0309 8.99326 46.0686 8.4405V8.34461C46.0686 7.24439 45.1766 6.35242 44.0765 6.35242C42.9764 6.35242 42.0845 7.24439 42.0845 8.34461V8.43784C40.1175 8.98755 38.6698 10.7945 38.6698 12.9342C38.67 14.4078 39.3773 15.8108 40.5622 16.6875Z" fill="#245462"/>
<path d="M44.0766 33.6434C53.3546 33.6434 60.9026 26.0972 60.9026 16.8216C60.9026 7.546 53.3545 0 44.0766 0C34.7987 0 27.2506 7.54614 27.2506 16.8218C27.2506 26.0974 34.7987 33.6434 44.0766 33.6434ZM44.0766 3.98437C51.1576 3.98437 56.9184 9.74325 56.9184 16.8218C56.9184 23.9003 51.1576 29.6591 44.0766 29.6591C36.9957 29.6591 31.2348 23.9003 31.2348 16.8218C31.2348 9.74325 36.9957 3.98437 44.0766 3.98437Z" fill="#245462"/>
<path d="M66.63 38.1419C64.4754 35.368 60.5856 34.8461 57.7857 36.7886L50.2059 41.8596C49.1526 39.8983 47.0815 38.5614 44.7035 38.5614H39.2966C36.5673 36.0016 32.9236 34.5482 29.1652 34.5482C26.3444 34.5482 23.6004 35.3451 21.2301 36.8528C19.0943 38.2113 17.3473 40.088 16.1468 42.3035L15.1319 42.9242L14.8689 42.1551C14.513 41.1142 13.3809 40.5587 12.3399 40.9143L1.34845 44.6701C0.307868 45.0257 -0.248351 46.1587 0.107587 47.1998L6.75791 66.6518C7.11398 67.6933 8.24647 68.2479 9.28692 67.8925L20.2784 64.137C21.26 63.8015 21.903 62.7301 21.4972 61.5429L38.9382 61.003C43.688 60.9966 48.2429 59.5379 52.112 56.7841L65.2647 47.4285C68.2801 45.2821 68.9026 41.0656 66.63 38.1419ZM9.88352 63.4781L4.52214 47.7963L11.7433 45.3289C12.5212 47.6042 16.3018 58.6623 17.1047 61.0108L9.88352 63.4781ZM62.955 44.1819L49.8023 53.5375C46.6027 55.8148 42.835 57.0185 38.9066 57.0185C38.8862 57.0185 38.8655 57.0188 38.845 57.0194L20.1486 57.5981L16.4524 46.7868L18.6989 45.413C18.6995 45.4127 18.6999 45.4123 18.7004 45.4119C19.0311 45.2095 19.2897 44.9124 19.4475 44.5908C21.281 40.8539 25.0046 38.5323 29.1652 38.5323C32.1718 38.5323 34.9644 39.736 37.0284 41.9216C37.4085 42.3243 37.9546 42.5454 38.4767 42.5454H44.7035C45.9482 42.5454 46.9608 43.5574 46.9608 44.8015C46.9608 46.0325 45.9651 47.0576 44.7035 47.0576H33.4637C32.3635 47.0576 31.4717 47.9495 31.4717 49.0498C31.4717 50.15 32.3636 51.0419 33.4637 51.0419H44.7035C46.372 51.0419 47.9396 50.3922 49.1162 49.2139C49.9394 48.391 50.5034 47.3787 50.7696 46.2758L60.0161 40.0898C60.0273 40.0824 60.0383 40.0748 60.0493 40.0671C61.1397 39.3054 62.6501 39.5128 63.484 40.5863C64.3633 41.7178 64.1229 43.3506 62.955 44.1819Z" fill="#245462"/>
</svg>
