<svg width="68" height="68" viewBox="0 0 68 68" fill="none" xmlns="http://www.w3.org/2000/svg">
<path d="M34 13.4141C22.6489 13.4141 13.4141 22.6489 13.4141 34C13.4141 45.3511 22.6489 54.5859 34 54.5859C45.3511 54.5859 54.5859 45.3511 54.5859 34C54.5859 22.6489 45.3511 13.4141 34 13.4141ZM34 50.6016C24.8459 50.6016 17.3984 43.1541 17.3984 34C17.3984 24.8459 24.8459 17.3984 34 17.3984C43.1541 17.3984 50.6016 24.8459 50.6016 34C50.6016 43.1541 43.1541 50.6016 34 50.6016Z" fill="#245462"/>
<path d="M41.9688 24.0391H26.0312C24.931 24.0391 24.0391 24.931 24.0391 26.0312V41.9688C24.0391 43.069 24.931 43.9609 26.0312 43.9609H41.9688C43.069 43.9609 43.9609 43.069 43.9609 41.9688V26.0312C43.9609 24.931 43.069 24.0391 41.9688 24.0391ZM39.9766 39.9766H28.0234V28.0234H32.0078V30.0156C32.0078 31.1158 32.8998 32.0078 34 32.0078C35.1002 32.0078 35.9922 31.1158 35.9922 30.0156V28.0234H39.9766V39.9766Z" fill="#245462"/>
<path d="M66.0078 26.6953H61.6093C60.9581 24.229 59.9773 21.8694 58.6807 19.6496L61.7982 16.5322C62.1718 16.1586 62.3818 15.652 62.3818 15.1235C62.3818 14.5952 62.1718 14.0885 61.7982 13.7149L54.2852 6.20195C53.5074 5.42393 52.2459 5.42393 51.4679 6.20195L48.3504 9.31945C46.1304 8.02267 43.771 7.04198 41.3047 6.3908V1.99219C41.3047 0.891969 40.4127 0 39.3125 0H28.6875C27.5873 0 26.6953 0.891969 26.6953 1.99219V6.3908C24.229 7.04198 21.8696 8.02267 19.6497 9.31932L16.5322 6.20181C15.7544 5.4238 14.4929 5.4238 13.7149 6.20181L6.20195 13.7148C5.82834 14.0884 5.61837 14.595 5.61837 15.1234C5.61837 15.6518 5.82834 16.1584 6.20195 16.5321L9.31945 19.6495C8.02267 21.8696 7.04198 24.229 6.3908 26.6953H1.99219C0.891969 26.6953 0 27.5873 0 28.6875V39.3125C0 40.4127 0.891969 41.3047 1.99219 41.3047H6.39067C7.04185 43.771 8.02267 46.1304 9.31932 48.3503L6.20181 51.4676C5.82821 51.8412 5.61823 52.3479 5.61823 52.8764C5.61823 53.4047 5.82808 53.9114 6.20181 54.285L13.7148 61.7981C14.0884 62.1717 14.595 62.3816 15.1234 62.3816C15.6517 62.3816 16.1584 62.1717 16.532 61.7981L19.6495 58.6805C21.8693 59.9772 24.2287 60.9579 26.695 61.6092V66.0078C26.695 67.108 27.587 68 28.6872 68H39.3122C40.4125 68 41.3044 67.108 41.3044 66.0078V61.6093C43.7707 60.9581 46.1302 59.9773 48.35 58.6807L51.4675 61.7982C51.8411 62.1718 52.3478 62.3818 52.8761 62.3818C53.4046 62.3818 53.9111 62.1718 54.2847 61.7982L61.7977 54.2851C62.1713 53.9115 62.3812 53.4048 62.3812 52.8765C62.3812 52.348 62.1713 51.8415 61.7977 51.4678L58.6801 48.3504C59.9768 46.1306 60.9575 43.7711 61.6088 41.3048H66.0078C67.108 41.3048 68 40.4129 68 39.3126V28.6876C68 27.5873 67.108 26.6953 66.0078 26.6953ZM64.0156 37.3203H60.0291C59.0816 37.3203 58.2652 37.9876 58.0768 38.9162C57.4527 41.9904 56.2469 44.8922 54.4928 47.5409C53.9698 48.3307 54.0753 49.3797 54.7452 50.0496L57.5721 52.8764L52.8765 57.572L50.0496 54.745C49.3798 54.0751 48.3309 53.9697 47.541 54.4927C44.8922 56.2468 41.9905 57.4526 38.9163 58.0766C37.9878 58.2651 37.3204 59.0815 37.3204 60.029V64.0156H30.6798V60.0291C30.6798 59.0816 30.0126 58.2652 29.0839 58.0768C26.0097 57.4527 23.1079 56.2469 20.4592 54.4928C19.6693 53.9697 18.6204 54.0753 17.9507 54.7452L15.1238 57.5721L10.4282 52.8765L13.2551 50.0497C13.925 49.3798 14.0304 48.331 13.5074 47.541C11.7534 44.8922 10.5476 41.9905 9.92348 38.9163C9.73476 37.9877 8.91836 37.3203 7.97087 37.3203H3.98438V30.6797H7.97087C8.91836 30.6797 9.73476 30.0124 9.92322 29.0838C10.5473 26.0096 11.7531 23.1076 13.5072 20.459C14.0302 19.6691 13.9247 18.6202 13.2548 17.9503L10.4279 15.1235L15.1235 10.4279L17.9504 13.2548C18.6202 13.9247 19.669 14.0302 20.459 13.5072C23.1078 11.7531 26.0095 10.5473 29.0837 9.92335C30.0124 9.73476 30.6797 8.91836 30.6797 7.97101V3.98438H37.3203V7.97101C37.3203 8.91849 37.9876 9.73489 38.9162 9.92335C41.9903 10.5474 44.8921 11.7532 47.5409 13.5072C48.3307 14.0302 49.3797 13.9247 50.0495 13.2548L52.8764 10.4279L57.572 15.1235L54.745 17.9503C54.0751 18.6202 53.9697 19.669 54.4927 20.459C56.2468 23.1078 57.4526 26.0096 58.0766 29.0838C58.2651 30.0123 59.0815 30.6797 60.029 30.6797H64.0156V37.3203Z" fill="#245462"/>
</svg>
