<svg width="70" height="70" viewBox="0 0 70 70" fill="none" xmlns="http://www.w3.org/2000/svg">
<path d="M61.7446 14.0072H63.8456C64.5785 14.0072 65.1729 13.4129 65.1729 12.68C65.1729 11.9471 64.5785 11.3527 63.8456 11.3527H58.802C58.0691 11.3527 57.4748 11.9471 57.4748 12.68V17.7235C57.4748 18.4564 58.0691 19.0508 58.802 19.0508C59.535 19.0508 60.1293 18.4564 60.1293 17.7235V16.2632C64.1565 21.6546 66.3455 28.1962 66.3455 35C66.3455 52.284 52.284 66.3455 35 66.3455C17.716 66.3455 3.65451 52.284 3.65451 35C3.65451 17.716 17.716 3.65451 35 3.65451C36.2783 3.65451 37.5648 3.73215 38.8241 3.88519C39.5508 3.97305 40.2135 3.45555 40.3019 2.72782C40.3904 2.00022 39.8722 1.33845 39.1445 1.25005C37.7793 1.08415 36.385 1 35 1C25.9183 1 17.38 4.5366 10.9584 10.9584C4.5366 17.38 1 25.9183 1 35C1 44.0817 4.5366 52.62 10.9584 59.0416C17.38 65.4634 25.9183 69 35 69C44.0817 69 52.62 65.4634 59.0416 59.0416C65.4634 52.62 69 44.0817 69 35C69 27.3363 66.4397 19.9791 61.7446 14.0072Z" fill="#245462"/>
<path d="M15.397 21.0433C14.7775 20.6512 13.9577 20.8357 13.5655 21.4547C10.5355 26.2403 9.19418 31.9955 9.78865 37.6604C10.3919 43.4092 12.9794 48.8305 17.0745 52.9258C22.0165 57.8678 28.5082 60.3389 35.0001 60.3389C41.492 60.3389 47.9836 57.8679 52.9257 52.9258C62.8099 43.0416 62.8099 26.9587 52.9257 17.0746C48.8369 12.9859 43.4244 10.3994 37.6851 9.79147C32.0308 9.19222 26.2818 10.5231 21.4982 13.5382C20.878 13.9291 20.6923 14.7486 21.0831 15.3687C21.4739 15.989 22.2935 16.1746 22.9136 15.7839C31.9307 10.1006 43.5 11.403 51.0486 18.9516C59.8978 27.8008 59.8978 42.1994 51.0486 51.0486C42.1995 59.898 27.8007 59.898 18.9516 51.0486C11.5073 43.6043 10.1854 31.7555 15.8084 22.8749C16.2004 22.2554 16.0163 21.4355 15.397 21.0433Z" fill="#245462"/>
<path d="M52.2544 36.3487H53.8912C54.6241 36.3487 55.2184 35.7544 55.2184 35.0215C55.2184 34.2886 54.6241 33.6942 53.8912 33.6942H52.2544C51.5215 33.6942 50.9271 34.2886 50.9271 35.0215C50.9271 35.7544 51.5214 36.3487 52.2544 36.3487Z" fill="#245462"/>
<path d="M14.7816 34.9785C14.7816 35.7114 15.3759 36.3058 16.1088 36.3058H17.7456C18.4785 36.3058 19.0729 35.7114 19.0729 34.9785C19.0729 34.2456 18.4785 33.6512 17.7456 33.6512H16.1088C15.3759 33.6512 14.7816 34.2455 14.7816 34.9785Z" fill="#245462"/>
<path d="M36.3487 17.7456V16.1088C36.3487 15.3759 35.7544 14.7815 35.0215 14.7815C34.2886 14.7815 33.6942 15.3759 33.6942 16.1088V17.7456C33.6942 18.4785 34.2886 19.0728 35.0215 19.0728C35.7544 19.0728 36.3487 18.4785 36.3487 17.7456Z" fill="#245462"/>
<path d="M33.6512 52.2544V53.8912C33.6512 54.6241 34.2456 55.2185 34.9785 55.2185C35.7114 55.2185 36.3057 54.6241 36.3057 53.8912V52.2544C36.3057 51.5215 35.7114 50.9272 34.9785 50.9272C34.2456 50.9272 33.6512 51.5214 33.6512 52.2544Z" fill="#245462"/>
<path d="M28.3473 26.4701C27.8289 25.952 26.9887 25.952 26.4701 26.4701C25.9519 26.9884 25.9519 27.8288 26.4701 28.3473L30.9683 32.8455C30.6237 33.4879 30.4276 34.2214 30.4276 35C30.4276 37.5212 32.4788 39.5724 35 39.5724C37.5213 39.5724 39.5724 37.5212 39.5724 35C39.5724 34.2214 39.3762 33.4879 39.0317 32.8455L48.1078 23.7693C48.6261 23.251 48.6261 22.4106 48.1078 21.8922C47.5894 21.374 46.7493 21.374 46.2307 21.8922L37.1545 30.9683C36.5122 30.6236 35.7786 30.4276 35 30.4276C34.2214 30.4276 33.4879 30.6238 32.8455 30.9683L28.3473 26.4701ZM36.9179 35C36.9179 36.0576 36.0576 36.9179 35 36.9179C33.9425 36.9179 33.0821 36.0576 33.0821 35C33.0821 33.9424 33.9425 33.0821 35 33.0821C36.0576 33.0821 36.9179 33.9424 36.9179 35Z" fill="#245462"/>
<path d="M18.9509 18.9509C19.1991 18.704 19.3409 18.3616 19.3409 18.0125C19.3409 17.6634 19.1991 17.3223 18.9509 17.0741C18.704 16.8274 18.3628 16.6852 18.0125 16.6852C17.6634 16.6852 17.321 16.8272 17.0741 17.0741C16.8274 17.321 16.6852 17.6634 16.6852 18.0125C16.6852 18.3629 16.8273 18.704 17.0741 18.9509C17.321 19.1976 17.6634 19.3397 18.0125 19.3397C18.3628 19.3397 18.704 19.1976 18.9509 18.9509Z" fill="#245462"/>
<path d="M44.1939 4.96557C44.5444 4.96557 44.8869 4.82475 45.1336 4.57669C45.3805 4.32982 45.5226 3.98858 45.5226 3.63832C45.5226 3.28925 45.3806 2.94682 45.1336 2.69995C44.8869 2.45321 44.5444 2.31106 44.1939 2.31106C43.8448 2.31106 43.5024 2.45308 43.2557 2.69995C43.0088 2.94682 42.8667 3.28925 42.8667 3.63832C42.8667 3.98871 43.0087 4.32982 43.2557 4.57669C43.5024 4.82475 43.8448 4.96557 44.1939 4.96557Z" fill="#245462"/>
<path d="M61.7446 14.0072H63.8456C64.5785 14.0072 65.1729 13.4129 65.1729 12.68C65.1729 11.9471 64.5785 11.3527 63.8456 11.3527H58.802C58.0691 11.3527 57.4748 11.9471 57.4748 12.68V17.7235C57.4748 18.4564 58.0691 19.0508 58.802 19.0508C59.535 19.0508 60.1293 18.4564 60.1293 17.7235V16.2632C64.1565 21.6546 66.3455 28.1962 66.3455 35C66.3455 52.284 52.284 66.3455 35 66.3455C17.716 66.3455 3.65451 52.284 3.65451 35C3.65451 17.716 17.716 3.65451 35 3.65451C36.2783 3.65451 37.5648 3.73215 38.8241 3.88519C39.5508 3.97305 40.2135 3.45555 40.3019 2.72782C40.3904 2.00022 39.8722 1.33845 39.1445 1.25005C37.7793 1.08415 36.385 1 35 1C25.9183 1 17.38 4.5366 10.9584 10.9584C4.5366 17.38 1 25.9183 1 35C1 44.0817 4.5366 52.62 10.9584 59.0416C17.38 65.4634 25.9183 69 35 69C44.0817 69 52.62 65.4634 59.0416 59.0416C65.4634 52.62 69 44.0817 69 35C69 27.3363 66.4397 19.9791 61.7446 14.0072Z" stroke="#245462"/>
<path d="M15.397 21.0433C14.7775 20.6512 13.9577 20.8357 13.5655 21.4547C10.5355 26.2403 9.19418 31.9955 9.78865 37.6604C10.3919 43.4092 12.9794 48.8305 17.0745 52.9258C22.0165 57.8678 28.5082 60.3389 35.0001 60.3389C41.492 60.3389 47.9836 57.8679 52.9257 52.9258C62.8099 43.0416 62.8099 26.9587 52.9257 17.0746C48.8369 12.9859 43.4244 10.3994 37.6851 9.79147C32.0308 9.19222 26.2818 10.5231 21.4982 13.5382C20.878 13.9291 20.6923 14.7486 21.0831 15.3687C21.4739 15.989 22.2935 16.1746 22.9136 15.7839C31.9307 10.1006 43.5 11.403 51.0486 18.9516C59.8978 27.8008 59.8978 42.1994 51.0486 51.0486C42.1995 59.898 27.8007 59.898 18.9516 51.0486C11.5073 43.6043 10.1854 31.7555 15.8084 22.8749C16.2004 22.2554 16.0163 21.4355 15.397 21.0433Z" stroke="#245462"/>
<path d="M52.2544 36.3487H53.8912C54.6241 36.3487 55.2184 35.7544 55.2184 35.0215C55.2184 34.2886 54.6241 33.6942 53.8912 33.6942H52.2544C51.5215 33.6942 50.9271 34.2886 50.9271 35.0215C50.9271 35.7544 51.5214 36.3487 52.2544 36.3487Z" stroke="#245462"/>
<path d="M14.7816 34.9785C14.7816 35.7114 15.3759 36.3058 16.1088 36.3058H17.7456C18.4785 36.3058 19.0729 35.7114 19.0729 34.9785C19.0729 34.2456 18.4785 33.6512 17.7456 33.6512H16.1088C15.3759 33.6512 14.7816 34.2455 14.7816 34.9785Z" stroke="#245462"/>
<path d="M36.3487 17.7456V16.1088C36.3487 15.3759 35.7544 14.7815 35.0215 14.7815C34.2886 14.7815 33.6942 15.3759 33.6942 16.1088V17.7456C33.6942 18.4785 34.2886 19.0728 35.0215 19.0728C35.7544 19.0728 36.3487 18.4785 36.3487 17.7456Z" stroke="#245462"/>
<path d="M33.6512 52.2544V53.8912C33.6512 54.6241 34.2456 55.2185 34.9785 55.2185C35.7114 55.2185 36.3057 54.6241 36.3057 53.8912V52.2544C36.3057 51.5215 35.7114 50.9272 34.9785 50.9272C34.2456 50.9272 33.6512 51.5214 33.6512 52.2544Z" stroke="#245462"/>
<path d="M28.3473 26.4701C27.8289 25.952 26.9887 25.952 26.4701 26.4701C25.9519 26.9884 25.9519 27.8288 26.4701 28.3473L30.9683 32.8455C30.6237 33.4879 30.4276 34.2214 30.4276 35C30.4276 37.5212 32.4788 39.5724 35 39.5724C37.5213 39.5724 39.5724 37.5212 39.5724 35C39.5724 34.2214 39.3762 33.4879 39.0317 32.8455L48.1078 23.7693C48.6261 23.251 48.6261 22.4106 48.1078 21.8922C47.5894 21.374 46.7493 21.374 46.2307 21.8922L37.1545 30.9683C36.5122 30.6236 35.7786 30.4276 35 30.4276C34.2214 30.4276 33.4879 30.6238 32.8455 30.9683L28.3473 26.4701ZM36.9179 35C36.9179 36.0576 36.0576 36.9179 35 36.9179C33.9425 36.9179 33.0821 36.0576 33.0821 35C33.0821 33.9424 33.9425 33.0821 35 33.0821C36.0576 33.0821 36.9179 33.9424 36.9179 35Z" stroke="#245462"/>
<path d="M18.9509 18.9509C19.1991 18.704 19.3409 18.3616 19.3409 18.0125C19.3409 17.6634 19.1991 17.3223 18.9509 17.0741C18.704 16.8274 18.3628 16.6852 18.0125 16.6852C17.6634 16.6852 17.321 16.8272 17.0741 17.0741C16.8274 17.321 16.6852 17.6634 16.6852 18.0125C16.6852 18.3629 16.8273 18.704 17.0741 18.9509C17.321 19.1976 17.6634 19.3397 18.0125 19.3397C18.3628 19.3397 18.704 19.1976 18.9509 18.9509Z" stroke="#245462"/>
<path d="M44.1939 4.96557C44.5444 4.96557 44.8869 4.82475 45.1336 4.57669C45.3805 4.32982 45.5226 3.98858 45.5226 3.63832C45.5226 3.28925 45.3806 2.94682 45.1336 2.69995C44.8869 2.45321 44.5444 2.31106 44.1939 2.31106C43.8448 2.31106 43.5024 2.45308 43.2557 2.69995C43.0088 2.94682 42.8667 3.28925 42.8667 3.63832C42.8667 3.98871 43.0087 4.32982 43.2557 4.57669C43.5024 4.82475 43.8448 4.96557 44.1939 4.96557Z" stroke="#245462"/>
</svg>
